<svg width="82" height="82" viewBox="0 0 82 82" fill="none" xmlns="http://www.w3.org/2000/svg">
<rect width="82" height="82" fill="white"/>
<path fill-rule="evenodd" clip-rule="evenodd" d="M15.836 33.246C25.898 41.039 32.992 52.051 38.016 64.422C36.9301 60.5079 35.6879 56.7618 34.2777 53.18C30.9339 44.6995 26.6761 37.157 21.4887 30.555C19.8325 28.598 17.5278 27.3206 15.5395 29.2308C14.559 30.1722 14.1567 31.6136 15.2504 32.7542L15.836 33.246Z" fill="#5856D6"/>
<path fill-rule="evenodd" clip-rule="evenodd" d="M10.9531 27.852L11.8828 28.7661C11.8125 28.4926 11.5312 27.4927 11.5273 27.27C11.5234 26.7309 11.957 26.2934 12.4961 26.2895L13.7969 26.2817L12.6797 25.6176C12.1367 25.2973 12.0351 24.5473 12.4805 24.0942L13.3945 23.1645C13.1211 23.2349 12.1211 23.5161 11.8984 23.52C11.3593 23.5239 10.9218 23.0903 10.9179 22.5513L10.9101 21.2505L10.2461 22.3677C9.92576 22.9106 9.17577 23.0122 8.72267 22.5669L7.79298 21.6528C7.86329 21.9263 8.14454 22.9262 8.14845 23.1489C8.15235 23.688 7.71876 24.1255 7.1797 24.1294L5.8789 24.1372L6.9961 24.8013C7.53907 25.1216 7.64063 25.8716 7.19532 26.3247L6.28126 27.2544C6.5547 27.184 7.55466 26.9028 7.77736 26.8989C8.31642 26.895 8.75392 27.3286 8.75783 27.8676L8.76564 29.1684L9.4297 28.0512C9.75392 27.5083 10.5 27.4067 10.9531 27.852Z" fill="#5856D6"/>
<path fill-rule="evenodd" clip-rule="evenodd" d="M58.848 11.488L59.5082 10.3669C59.8324 9.81609 60.5824 9.72629 61.0316 10.1638L61.9613 11.0739L61.6331 9.81609C61.4769 9.20289 61.93 8.58949 62.6058 8.59729L63.8714 8.5856L62.7503 7.9255C62.1995 7.6012 62.1097 6.85129 62.5472 6.40209L63.4573 5.4724L62.1995 5.8005C61.5862 5.9567 60.9729 5.5036 60.9807 4.8278L60.969 3.56219L60.3088 4.6833C59.9846 5.2341 59.2346 5.3239 58.7854 4.8864L57.8558 3.9763L58.1839 5.2341C58.3401 5.8474 57.887 6.4607 57.2112 6.4529L55.9456 6.46459L57.0667 7.12479C57.6175 7.44899 57.7073 8.19899 57.2698 8.64819L56.3597 9.5779L57.6175 9.2497C58.2307 9.0935 58.8441 9.5466 58.8363 10.2224L58.848 11.488Z" fill="#FF9500"/>
<path fill-rule="evenodd" clip-rule="evenodd" d="M47.992 53.738C53.4061 46.2849 59.539 40.441 66.39 36.199C68.0541 35.0857 68.5072 33.656 66.9955 32.0349C65.1049 30.0115 62.7182 31.3865 61.0697 32.9177C55.2259 38.9333 50.2027 45.9767 45.9917 54.0427C44.2144 57.4489 42.5776 61.0427 41.0933 64.8197C43.2456 60.8002 45.5467 57.1012 47.992 53.738Z" fill="#FF3B30"/>
<path fill-rule="evenodd" clip-rule="evenodd" d="M71.6289 30.3593L72.6484 29.5468C73.1406 29.1562 73.8906 29.3085 74.164 29.9609L74.6796 31.0859L74.8281 29.7968C74.8984 29.1718 75.539 28.7421 76.2031 29.0194L77.3554 29.4491L76.5468 28.4335C76.1561 27.9413 76.3085 27.1913 76.9608 26.9179L78.0858 26.4023L76.7967 26.2538C76.1717 26.1835 75.742 25.5429 76.0194 24.8788L76.4491 23.7265L75.4335 24.539C74.9413 24.9297 74.1913 24.7773 73.9179 24.125L73.4023 23L73.2538 24.2891C73.1835 24.9141 72.5429 25.3438 71.8788 25.0664L70.7265 24.6367L71.539 25.6523C71.9296 26.1445 71.7773 26.8945 71.125 27.1679L70 27.6836L71.2891 27.832C71.9141 27.9023 72.3438 28.5429 72.0664 29.207L71.6289 30.3593Z" fill="#FF3B30"/>
<path fill-rule="evenodd" clip-rule="evenodd" d="M10.6328 65.9102C9.4609 65.2383 8.6211 64.1524 8.0234 63C7.6484 64.2422 7.0234 65.4648 6 66.3438C7.1719 67.0157 8.0117 68.1016 8.6094 69.254C8.98831 68.0118 9.6094 66.7892 10.6328 65.9102Z" fill="#34C759"/>
<path fill-rule="evenodd" clip-rule="evenodd" d="M15.668 71.539C23.4805 70.6132 28.152 68.3671 35.606 75.0624C31.8404 70.539 25.6763 65.8554 20.145 64.3554C17.0356 63.5117 14.0122 63.6523 12.9419 66.582C12.313 68.3008 13.3164 71.6093 15.668 71.539Z" fill="#34C759"/>
<path fill-rule="evenodd" clip-rule="evenodd" d="M21.034 18.3199C20.8777 19.523 21.2527 20.4683 22.3113 21.109C30.2058 25.0387 35.7173 25.6793 38.3733 36.992C37.8264 30.4217 34.9475 21.996 30.6585 17.16C28.3304 14.535 25.4866 12.8748 22.7562 14.9061C21.9203 15.5311 21.159 17.3355 21.034 18.3199Z" fill="#FF3B30"/>
<path fill-rule="evenodd" clip-rule="evenodd" d="M66.32 67.641C66.3434 67.2582 66.2731 66.8129 66.1872 66.5785C65.1169 63.6488 62.0934 63.5082 58.9841 64.3519C53.4568 65.8519 47.2961 70.5316 43.5231 75.0589C49.7419 69.4691 53.8821 70.1058 59.9291 71.0355C61.0385 71.2074 62.2103 71.3871 63.4564 71.5316C65.4994 71.7347 66.3434 69.2699 66.32 67.641Z" fill="#34C759"/>
<path fill-rule="evenodd" clip-rule="evenodd" d="M71.6133 62C71.0117 63.1562 70.1758 64.2383 69 64.9102C70.0234 65.7891 70.6484 67.0118 71.0234 68.254C71.625 67.0978 72.4609 66.0157 73.6328 65.3438C72.6094 64.4649 71.9883 63.2461 71.6133 62Z" fill="#34C759"/>
<path fill-rule="evenodd" clip-rule="evenodd" d="M45.266 39.844C47.6527 30.9378 51.2894 23.274 56.168 16.86C57.3086 15.2272 57.2149 13.7428 55.2305 12.778C52.7422 11.5671 50.9961 13.7155 50.0117 15.7389C46.7187 23.442 44.5508 31.8129 43.5117 40.8559C43.0742 44.6723 42.8359 48.6059 42.8008 52.6609C43.3672 48.1297 44.1879 43.8592 45.266 39.844Z" fill="#FF9500"/>
<path fill-rule="evenodd" clip-rule="evenodd" d="M71.469 53.125C73.4456 53.4297 76.219 54.4219 77.3284 52.1445C79.7034 47.2617 75.1643 45.1836 70.5237 46.4414C64.9964 47.9414 58.8357 52.6211 55.0627 57.1484C61.2815 51.5625 65.422 52.1953 71.469 53.125Z" fill="#5856D6"/>
<path fill-rule="evenodd" clip-rule="evenodd" d="M9.8477 51.879C9.32426 51.4337 8.92192 50.8712 8.6211 50.2696C8.31641 50.8712 7.91798 51.4337 7.3945 51.879C7.91794 52.3243 8.32028 52.8868 8.6211 53.4884C8.92579 52.8907 9.32422 52.3282 9.8477 51.879Z" fill="#5856D6"/>
<path fill-rule="evenodd" clip-rule="evenodd" d="M17.2734 13.5781C15.9961 12.7148 15.1718 11.375 14.6367 10C14.1054 11.375 13.2773 12.7188 12 13.582C13.2773 14.4492 14.1016 15.7851 14.6367 17.1601C15.1719 15.7851 15.9961 14.4453 17.2734 13.5781Z" fill="#FF2D55"/>
<path fill-rule="evenodd" clip-rule="evenodd" d="M14.863 54.996C19.3474 55.2772 22.9333 54.664 26.465 57.7343C24.4611 55.0702 21.6134 52.3281 18.8166 50.9921C16.8518 50.0546 14.8244 49.7343 13.7697 51.5312C13.4884 52.0155 13.0465 54.7187 14.863 54.996Z" fill="#0A84FF"/>
</svg>
